<?xml version="1.0" standalone="no"?>
<!DOCTYPE svg PUBLIC "-//W3C//DTD SVG 20010904//EN"
 "http://www.w3.org/TR/2001/REC-SVG-20010904/DTD/svg10.dtd">
<svg version="1.0" xmlns="http://www.w3.org/2000/svg"
 width="512.000000pt" height="512.000000pt" viewBox="0 0 512.000000 512.000000"
 preserveAspectRatio="xMidYMid meet">

<g transform="translate(0.000000,512.000000) scale(0.100000,-0.100000)"
fill="#FFFFFF" stroke="none">
<path d="M2487 5113 c-28 -7 -437 -558 -437 -588 0 -14 9 -34 20 -45 18 -18
33 -20 135 -20 l115 0 0 -424 c0 -233 3 -432 6 -440 10 -26 41 -38 64 -26 20
10 20 21 20 485 0 459 -1 475 -19 485 -11 5 -67 10 -126 10 l-106 0 176 233
c97 127 180 232 184 232 8 0 361 -449 361 -460 0 -3 -51 -5 -114 -5 -107 0
-116 -1 -130 -22 -14 -19 -16 -69 -16 -340 0 -303 1 -319 20 -338 20 -20 47
-18 62 4 4 6 8 145 8 309 l0 297 125 0 c112 0 127 2 145 20 44 44 50 33 -255
427 -159 205 -178 222 -238 206z"/>
<path d="M2425 3261 c-105 -29 -1530 -508 -1564 -525 -46 -24 -122 -106 -142
-153 -26 -60 -210 -669 -216 -714 -11 -77 57 -138 136 -124 142 26 1542 360
1572 375 54 28 96 67 125 116 33 56 166 492 159 521 -6 24 -33 37 -58 27 -11
-4 -30 -49 -52 -122 -112 -365 -115 -372 -150 -411 -19 -21 -51 -45 -72 -54
-51 -22 -1543 -369 -1560 -363 -7 3 -13 12 -13 21 0 30 202 681 221 712 47 77
41 74 869 353 693 233 792 264 860 268 l77 4 802 -267 c852 -284 841 -279 890
-358 19 -31 221 -682 221 -712 0 -9 -6 -18 -13 -21 -14 -5 -1501 338 -1551
358 -39 16 -93 64 -112 100 -8 15 -39 110 -70 211 -81 268 -84 275 -103 282
-26 8 -50 -4 -56 -29 -7 -28 127 -465 159 -520 29 -49 71 -88 125 -116 20 -10
338 -89 706 -175 953 -223 879 -207 926 -195 52 14 82 59 76 115 -4 41 -184
642 -213 710 -8 21 -28 53 -42 72 -63 79 -87 88 -910 364 -745 249 -787 262
-870 265 -65 3 -105 -1 -157 -15z"/>
<path d="M760 1570 c-21 -21 -21 -29 -18 -463 3 -424 4 -444 24 -487 37 -80
86 -114 231 -159 597 -187 1392 -433 1444 -446 46 -13 88 -16 149 -12 76 5
172 32 867 249 465 145 795 254 815 267 39 27 80 82 96 130 8 24 12 167 12
472 0 434 0 438 -21 453 -22 15 -48 11 -61 -8 -4 -6 -8 -204 -8 -441 0 -400
-2 -433 -19 -472 -11 -23 -31 -49 -45 -58 -14 -9 -371 -125 -793 -258 l-768
-241 -105 1 -105 0 -769 241 c-696 219 -773 245 -803 274 -18 18 -38 48 -43
68 -6 20 -10 213 -10 462 0 412 -1 428 -19 438 -26 13 -28 13 -51 -10z"/>
</g>
</svg>
